<svg width="80" height="80" fill="none" xmlns="http://www.w3.org/2000/svg"><g clip-path="url(#clip0)" fill="#fff"><path d="M40 73.333c-18.333 0-33.333-15-33.333-33.333S21.667 6.667 40 6.667c18.334 0 33.334 15 33.334 33.333S58.334 73.333 40 73.333zM40 10c-16.666 0-30 13.333-30 30s13.334 30 30 30c16.667 0 30-13.333 30-30S56.667 10 40 10z"/><path d="M40 16.667c-1 0-1.667-.667-1.667-1.667V1.667C38.333.667 39 0 40 0s1.666.667 1.666 1.667V15c0 1-.666 1.667-1.666 1.667z"/><path d="M40 16.667c-1 0-1.667-.667-1.667-1.667V1.667C38.333.667 39 0 40 0s1.666.667 1.666 1.667V15c0 1-.666 1.667-1.666 1.667zm38.333 25H65c-1 0-1.667-.667-1.667-1.667S64 38.333 65 38.333h13.333c1 0 1.667.667 1.667 1.667s-.667 1.667-1.667 1.667zM40 80c-1 0-1.667-.667-1.667-1.667V65c0-1 .667-1.667 1.667-1.667S41.666 64 41.666 65v13.333C41.666 79.333 41 80 40 80zM15 41.667H1.667C.667 41.667 0 41 0 40s.667-1.667 1.667-1.667H15c1 0 1.667.667 1.667 1.667S16 41.667 15 41.667zM40 50c-5.667 0-10-4.333-10-10s4.333-10 10-10 10 4.333 10 10-4.333 10-10 10zm0-16.667c-3.667 0-6.667 3-6.667 6.667s3 6.667 6.667 6.667 6.667-3 6.667-6.667-3-6.667-6.667-6.667z"/></g><defs><clipPath id="clip0"><path fill="#fff" d="M0 0h80v80H0z"/></clipPath></defs></svg>