<svg width="78" height="78" fill="none" xmlns="http://www.w3.org/2000/svg"><g clip-path="url(#clip0)"><path d="M56.883 36.207l-.102.134v39.374c0 .986-.799 1.785-1.785 1.785H27.574c-.986 0-1.785-.8-1.785-1.785v-34.83l-.2-.15a22.325 22.325 0 01-8.94-17.883v-2.286c0-2.76 1.77-5.116 4.237-5.99l.333-.119V6.855A6.363 6.363 0 0127.574.5c1.626 0 3.11.614 4.237 1.624l.334.299.333-.3A6.328 6.328 0 0136.715.5c1.626 0 3.11.614 4.236 1.624l.334.299.334-.3A6.327 6.327 0 0145.855.5c2.926 0 5.397 1.989 6.132 4.686l.147.54.52-.207a6.318 6.318 0 012.342-.449 6.363 6.363 0 016.356 6.356v11.426c0 4.838-1.583 9.55-4.47 13.355zm-18.05-21.632l.667.237V6.855a2.788 2.788 0 00-2.785-2.785 2.788 2.788 0 00-2.785 2.785v7.356h2.785c.742 0 1.455.13 2.118.364zm-8.974-.364h.5V6.855a2.788 2.788 0 00-2.785-2.785 2.788 2.788 0 00-2.785 2.785v7.356h5.07zm8.963 20.661h0a11.946 11.946 0 00-11.248-7.95 1.785 1.785 0 010-3.57h9.14a2.788 2.788 0 002.786-2.786 2.788 2.788 0 00-2.785-2.785H23.004a2.788 2.788 0 00-2.785 2.785v2.286a18.77 18.77 0 008.348 15.62l.278-.416-.278.416c.495.33.792.887.792 1.483V73.93h23.852V35.718c0-.413.143-.813.404-1.132 2.688-3.278 4.166-7.445 4.166-11.734v-1.101l-.667.236a6.327 6.327 0 01-6.355-1.26l-.333-.298-.334.3a6.328 6.328 0 01-6.578 1.174l-.52-.207-.147.54a6.382 6.382 0 01-4.463 4.464l-.864.235.654.612a15.45 15.45 0 014.014 6.136 1.786 1.786 0 01-1.088 2.278h0a1.785 1.785 0 01-2.278-1.089zM54.996 8.641a2.788 2.788 0 00-2.785 2.785v4.57a2.788 2.788 0 002.785 2.785 2.788 2.788 0 002.785-2.785v-4.57a2.788 2.788 0 00-2.785-2.785zm-9.14-4.57a2.788 2.788 0 00-2.786 2.784v9.141a2.788 2.788 0 002.785 2.785 2.788 2.788 0 002.786-2.785v-9.14a2.788 2.788 0 00-2.785-2.786z" fill="#fff" stroke="#4C2552"/></g><defs><clipPath id="clip0"><path fill="#fff" d="M0 0h78v78H0z"/></clipPath></defs></svg>