<svg width="64" height="64" fill="none" xmlns="http://www.w3.org/2000/svg"><g clip-path="url(#clip0)" fill="#fff"><path d="M49.333 64h-48a1.334 1.334 0 01-1.17-1.974l24-44c.466-.855 1.874-.855 2.34 0l24 44A1.334 1.334 0 0149.334 64zM3.578 61.333h43.507L25.333 21.45 3.578 61.334z"/><path d="M62.667 64H49.333a1.334 1.334 0 010-2.667h11.078L48.077 38.907l-5.082 10.517a1.33 1.33 0 01-1.782.618 1.33 1.33 0 01-.618-1.78l6.208-12.843a1.337 1.337 0 011.165-.752c.501.023.963.253 1.203.69l14.666 26.667A1.335 1.335 0 0162.667 64zM25.333 20A1.334 1.334 0 0124 18.667V1.333C24 .597 24.597 0 25.333 0h16a1.333 1.333 0 01.944 2.277l-4.392 4.39 4.39 4.389c.381.381.496.955.288 1.453a1.327 1.327 0 01-1.23.824H26.667v5.334c0 .736-.598 1.333-1.334 1.333zm1.334-9.333h11.448L35.059 7.61a1.334 1.334 0 010-1.886l3.056-3.058H26.667v8zM29.333 40c-.032 0-.061 0-.096-.003a1.326 1.326 0 01-.97-.53l-2.934-3.91-2.933 3.91a1.34 1.34 0 01-.971.53 1.29 1.29 0 01-1.037-.386l-4.48-4.48a1.334 1.334 0 011.885-1.886l3.392 3.392 3.077-4.104c.502-.672 1.63-.672 2.134 0l3.077 4.104 3.392-3.392a1.334 1.334 0 011.885 1.886l-4.48 4.48c-.25.25-.59.389-.941.389z"/></g><defs><clipPath id="clip0"><path fill="#fff" d="M0 0h64v64H0z"/></clipPath></defs></svg>