<svg width="79" height="79" fill="none" xmlns="http://www.w3.org/2000/svg"><g clip-path="url(#clip0)" fill="#fff"><path d="M8.637 30.679s2.44-3.145.862-7.513c-1.584-4.365-5.271-6.023-5.271-6.023s-2.76 3.748-1.218 8.003c1.54 4.258 5.627 5.533 5.627 5.533zm6.771 2.234s4.266-.342 6.71-4.156c2.442-3.812.575-8.075.575-8.075s-3.96.804-6.47 4.718c-2.505 3.91-.815 7.513-.815 7.513zm.433 5.04c-1.974 4.205.171 7.56.171 7.56s4.189-.899 6.111-4.994c1.92-4.1-.487-8.083-.487-8.083s-3.82 1.311-5.795 5.517zm9.642 3.387s-3.682 1.668-5.252 6.036c-1.57 4.376.879 7.51.879 7.51s4.082-1.286 5.613-5.546c1.528-4.26-1.24-8-1.24-8zm3.069 23s3.541-2.409 3.781-6.928c.237-4.522-3.495-7.304-3.495-7.304s-3.046 2.658-3.29 7.296c-.243 4.634 3.004 6.937 3.004 6.937zM14.076 22.263s3.776-1.261 4.883-5.77c1.11-4.508-1.036-7.934-1.036-7.934s-4.373 1.587-5.455 5.985c-1.08 4.395 1.608 7.719 1.608 7.719zM8.634 40.266s1.402-3.727-1.394-7.43C4.44 29.128.43 28.63.43 28.63s-1.532 4.395 1.195 8.009c2.726 3.616 7.009 3.627 7.009 3.627zm3.129 9.831s.537-3.944-3.01-6.934c-3.553-2.994-7.574-2.586-7.574-2.586S.66 45.203 4.12 48.12c3.465 2.913 7.643 1.977 7.643 1.977zm4.765 8.13s-.675-3.922-4.966-5.695c-4.294-1.78-8-.174-8-.174s.908 4.566 5.089 6.301c4.18 1.727 7.877-.432 7.877-.432zm2.082 3.376c-4.473-1.25-7.965.785-7.965.785s1.445 4.423 5.802 5.643c4.363 1.22 7.772-1.366 7.772-1.366s-1.137-3.814-5.61-5.062z"/><path d="M14.541 24.95l-1.988-.977c-.105.218-10.334 21.944 18.408 46.512l1.437-1.683C5.034 45.407 14.138 25.774 14.541 24.951zm55.822 5.688s-2.443-3.145-.862-7.51c1.578-4.368 5.269-6.026 5.269-6.026s2.757 3.746 1.214 8.003c-1.534 4.258-5.62 5.533-5.62 5.533zm-6.771 2.233s-4.266-.344-6.712-4.156c-2.443-3.811-.576-8.074-.576-8.074s3.96.804 6.472 4.715c2.507 3.913.816 7.515.816 7.515zm-.432 5.037c1.974 4.206-.172 7.56-.172 7.56s-4.188-.898-6.114-4.993c-1.916-4.1.488-8.083.488-8.083s3.822 1.314 5.797 5.516zm-9.643 3.39s3.68 1.666 5.252 6.042c1.57 4.374-.881 7.508-.881 7.508s-4.079-1.289-5.61-5.55c-1.531-4.26 1.24-8 1.24-8zm-3.073 22.999s-3.54-2.407-3.779-6.93c-.237-4.521 3.498-7.305 3.498-7.305s3.04 2.657 3.288 7.297c.245 4.64-3.007 6.938-3.007 6.938zM64.92 22.222s-3.77-1.262-4.878-5.77c-1.11-4.508 1.038-7.937 1.038-7.937s4.374 1.586 5.453 5.987c1.08 4.393-1.614 7.72-1.614 7.72zm5.447 18.002s-1.402-3.726 1.39-7.43c2.801-3.707 6.814-4.205 6.814-4.205s1.534 4.395-1.195 8.008c-2.73 3.616-7.01 3.627-7.01 3.627zm-3.129 9.832s-.54-3.944 3.01-6.94c3.553-2.99 7.574-2.583 7.574-2.583s.518 4.63-2.944 7.543c-3.462 2.914-7.64 1.98-7.64 1.98zm-4.768 8.13s.678-3.925 4.969-5.7c4.296-1.78 8-.174 8-.174s-.908 4.566-5.089 6.298c-4.183 1.735-7.88-.424-7.88-.424zm-2.081 3.376c4.472-1.248 7.967.785 7.967.785s-1.443 4.42-5.803 5.648c-4.36 1.215-7.769-1.371-7.769-1.371s1.135-3.812 5.605-5.062z"/><path d="M64.456 24.91l1.994-.978c.105.218 10.333 21.944-18.41 46.509l-1.435-1.683C73.963 45.368 64.858 25.73 64.456 24.91z"/></g><defs><clipPath id="clip0"><path fill="#fff" d="M0 0h79v79H0z"/></clipPath></defs></svg>