<svg width="65" height="85" fill="none" xmlns="http://www.w3.org/2000/svg"><g filter="url(#filter0_d)" fill="#10C8FF"><path d="M41.67 60.73H23.33a3.013 3.013 0 01-3.01-3.01V23.2a3.013 3.013 0 013.01-3.011h18.34a3.013 3.013 0 013.01 3.01v34.52a3.013 3.013 0 01-3.01 3.01zM23.33 21.46a1.742 1.742 0 00-1.739 1.739v34.52a1.742 1.742 0 001.74 1.74H41.67a1.742 1.742 0 001.74-1.74V23.2a1.742 1.742 0 00-1.74-1.74H23.33z"/><path d="M37.719 21.46H27.28a.635.635 0 01-.635-.636v-2.73a1.825 1.825 0 011.822-1.824h8.066a1.825 1.825 0 011.823 1.823v2.731a.636.636 0 01-.638.635zm-9.803-1.271h9.168v-2.096a.553.553 0 00-.553-.552h-8.066a.553.553 0 00-.552.552l.003 2.096zm.842 31.023a.636.636 0 01-.583-.886l3.286-7.653h-5.073a.635.635 0 01-.482-1.049l10.036-11.698a.636.636 0 011.067.669l-3.542 8.167h5.145a.635.635 0 01.476 1.055l-9.853 11.178a.635.635 0 01-.477.217zm-.988-9.81h4.655a.635.635 0 01.584.887l-2.096 4.886 6.295-7.143H32.5a.635.635 0 01-.582-.89l2.254-5.2-6.402 7.46z"/></g><defs><filter id="filter0_d" x="-11" y="-1" width="87" height="87" filterUnits="userSpaceOnUse" color-interpolation-filters="sRGB"><feFlood flood-opacity="0" result="BackgroundImageFix"/><feColorMatrix in="SourceAlpha" values="0 0 0 0 0 0 0 0 0 0 0 0 0 0 0 0 0 0 127 0"/><feOffset dy="4"/><feGaussianBlur stdDeviation="10"/><feColorMatrix values="0 0 0 0 0.4125 0 0 0 0 0.850593 0 0 0 0 1 0 0 0 1 0"/><feBlend in2="BackgroundImageFix" result="effect1_dropShadow"/><feBlend in="SourceGraphic" in2="effect1_dropShadow" result="shape"/></filter></defs></svg>