<svg width="32" height="42" fill="none" xmlns="http://www.w3.org/2000/svg"><path d="M31.69 25.002l-.03-.41c-.482-6.264-3.398-10.19-5.97-13.653-2.383-3.207-4.44-5.976-4.44-10.062a.876.876 0 00-1.384-.712c-3.864 2.765-7.088 7.425-8.214 11.872-.782 3.095-.886 6.576-.9 8.874-3.568-.762-4.377-6.1-4.385-6.158a.88.88 0 00-.456-.65.87.87 0 00-.793-.014C4.931 14.18.526 16.42.27 25.358c-.018.297-.019.594-.019.893C.25 34.934 7.316 42 16 42c8.684 0 15.75-7.066 15.75-15.75 0-.435-.03-.842-.06-1.248zM16 40.25c-2.895 0-5.25-2.509-5.25-5.592 0-.105 0-.211.007-.341.035-1.3.282-2.188.553-2.779.507 1.09 1.416 2.093 2.889 2.093a.874.874 0 00.875-.875c0-1.246.025-2.683.335-3.98.277-1.151.936-2.374 1.772-3.355.371 1.273 1.096 2.303 1.804 3.31 1.012 1.438 2.059 2.926 2.243 5.463.01.15.022.301.022.464 0 3.083-2.355 5.592-5.25 5.592zm5.53-1.143a7.498 7.498 0 001.47-4.45c0-.205-.013-.397-.039-.755-.207-2.856-1.449-4.622-2.545-6.18-.934-1.325-1.74-2.471-1.74-4.096a.875.875 0 00-1.402-.698c-1.678 1.268-3.078 3.402-3.567 5.44-.25 1.045-.336 2.176-.367 3.105-.607-.653-.795-1.863-.796-1.879a.876.876 0 00-1.267-.66c-.22.113-2.157 1.223-2.268 5.31a7.497 7.497 0 001.462 4.864C5.493 36.957 2 32.005 2 26.25c0-.263-.001-.524.017-.816.15-5.244 1.828-7.845 2.924-8.993.764 2.735 2.765 6.309 6.683 6.309a.874.874 0 00.875-.875c0-2.928.066-6.312.849-9.41.888-3.51 3.323-7.3 6.261-9.867.488 3.748 2.53 6.496 4.675 9.383 2.55 3.433 5.188 6.983 5.63 12.732l.03.419c.026.364.055.727.055 1.118 0 5.755-3.494 10.707-8.47 12.856z" fill="#10C8FF"/></svg>