<svg width="46" height="44" fill="none" xmlns="http://www.w3.org/2000/svg"><path d="M4.702 22.895H.906a.906.906 0 010-1.811h3.796a.905.905 0 110 1.81zm40.392-1.811h-3.796a.905.905 0 100 1.81h3.796a.906.906 0 000-1.81zM6.7 30.354l-3.287 1.898a.905.905 0 10.905 1.569l3.288-1.898a.905.905 0 10-.906-1.569zm32.6-16.73l3.287-1.898a.906.906 0 00-.905-1.568l-3.288 1.898a.905.905 0 10.906 1.568zm3.287 18.628L39.3 30.354a.905.905 0 10-.906 1.569l3.288 1.898a.905.905 0 10.905-1.569zM7.606 12.056l-3.288-1.898a.905.905 0 10-.905 1.568L6.7 13.624a.905.905 0 10.906-1.568zm27.997 2.415h-11.57l.962-2.355c.455-1.112-1.221-1.797-1.676-.685l-1.473 3.603a.905.905 0 00.838 1.248h11.344L21.632 37.598l2.94-14.343a.906.906 0 00-.887-1.087H11.61l5.94-20.103h9.598l-.745 1.822c-.457 1.117 1.22 1.803 1.677.686l1.255-3.07a.906.906 0 00-.838-1.249H16.872a.906.906 0 00-.865.644l-6.478 21.92a.904.904 0 00.868 1.16h12.178l-3.828 18.677c-.206 1.005 1.154 1.523 1.67.637l15.968-27.46a.906.906 0 00-.782-1.361zm-9.904-7.375a.905.905 0 100 1.811.905.905 0 000-1.81z" fill="#10C8FF"/></svg>