<svg width="34" height="24" fill="none" xmlns="http://www.w3.org/2000/svg"><rect x=".5" y=".5" width="33" height="23" rx="4.5" stroke="#FCFCFC" stroke-opacity=".4"/><path fill-rule="evenodd" clip-rule="evenodd" d="M27.893 13.948h.839a.165.165 0 00.165-.163v-2.443c0-.307.015-.584.133-.862a.555.555 0 01.487-.363c.536 0 .531.618.527 1.104v2.585c.01.079.072.139.148.142h.846c.08.002.15-.059.162-.142v-2.857c0-.44 0-1.051-.22-1.414-.237-.392-.605-.535-.982-.535-.581 0-.91.296-1.146.917h-.017v-.695a.16.16 0 00-.149-.126h-.78a.162.162 0 00-.162.148v4.541a.162.162 0 00.15.163zm-.79-2.382c0-1.432-.675-2.56-1.924-2.56-1.216 0-1.892 1.109-1.892 2.513 0 1.403.667 2.53 1.892 2.53 1.18 0 1.925-1.098 1.925-2.483zm-2.575-.19c0-.555.04-1.443.66-1.443.266 0 .455.126.55.44.11.362.125.82.125 1.203 0 .582-.024 1.537-.684 1.537-.651 0-.651-1.158-.651-1.72v-.018zM8.79 13.957h.842a.154.154 0 00.113-.047.17.17 0 00.049-.117V11.35c0-.523 0-1.215.58-1.215.539 0 .53.608.524 1.1l-.002.153v2.407a.163.163 0 00.15.162h.842a.155.155 0 00.113-.046.17.17 0 00.049-.117V11.33c0-.255-.001-.6.079-.813a.56.56 0 01.502-.372c.244 0 .433.086.495.392.032.147.028.487.025.713l-.001.137v2.407a.162.162 0 00.149.162h.84a.155.155 0 00.114-.046.171.171 0 00.049-.117v-2.865l.002-.213c.007-.428.014-.883-.214-1.21a1.213 1.213 0 00-1.167-.484 1.26 1.26 0 00-.973.832c-.236-.574-.573-.84-1.092-.84-.518 0-.903.266-1.107.84h-.016V9.26a.162.162 0 00-.149-.156h-.784a.163.163 0 00-.16.162v4.54a.16.16 0 00.148.15zm-1.463.034a.167.167 0 01-.2.021 1.857 1.857 0 01-.42-.494l-.061-.095c-.463.494-.79.642-1.388.642-.708 0-1.259-.46-1.259-1.378 0-.718.372-1.206.894-1.446.385-.177.898-.232 1.342-.28l.24-.027v-.18c.001-.195.003-.412-.102-.576-.103-.163-.298-.23-.473-.23-.32 0-.607.174-.677.531a.182.182 0 01-.149.163l-.808-.093a.148.148 0 01-.1-.064.163.163 0 01-.026-.12c.187-1.04 1.081-1.354 1.882-1.354.41 0 .944.114 1.266.44.378.371.375.858.373 1.39v1.51c0 .37.13.555.268.75l.05.07c.053.078.065.176 0 .234-.173.151-.478.43-.646.587l-.006-.001zm-.849-2.156v.043c0 .325 0 .601-.157.896-.134.25-.346.403-.583.403-.322 0-.51-.259-.51-.642 0-.753.642-.89 1.25-.89v.19zm12.478 1.262l.05.07c.056.082.068.177-.005.231-.172.151-.477.43-.644.588a.168.168 0 01-.2.02 1.87 1.87 0 01-.422-.496 9.946 9.946 0 00-.06-.094c-.462.495-.79.643-1.387.643-.708 0-1.26-.46-1.26-1.378 0-.719.371-1.206.898-1.446.386-.178.903-.233 1.348-.28l.234-.026v-.178c.002-.195.004-.412-.103-.575-.1-.163-.298-.23-.472-.23-.32 0-.605.173-.676.53a.182.182 0 01-.149.163l-.816-.092a.147.147 0 01-.1-.064.163.163 0 01-.025-.122c.187-1.04 1.081-1.353 1.882-1.353.409 0 .943.114 1.266.44.378.37.376.852.373 1.381v1.519c0 .37.13.555.268.75zm-2.187.075c.236 0 .45-.153.583-.402.158-.296.158-.574.158-.903v-.226c-.609 0-1.252.136-1.252.89 0 .383.189.641.511.641zm2.948-3.922v.647a.17.17 0 00.047.118.15.15 0 00.113.046h1.448l-1.66 2.505a.815.815 0 00-.103.445v.662c0 .096.1.204.197.15a3.047 3.047 0 012.921-.005c.105.057.204-.053.204-.149v-.695a.298.298 0 00-.148-.253c-.484-.286-1.046-.37-1.578-.356l1.433-2.15c.133-.193.208-.315.208-.408V9.25a.167.167 0 00-.047-.117.15.15 0 00-.113-.046h-2.765a.145.145 0 00-.113.045.16.16 0 00-.044.118zm1.384 7.595c.192-.5.617-1.621.415-1.893h.002c-.202-.272-1.334-.13-1.844-.065-.155.02-.18-.122-.04-.225.904-.668 2.385-.477 2.558-.251.171.225-.047 1.787-.894 2.532-.13.114-.255.053-.197-.098zm-6.084.772c1.97 0 4.262-.654 5.842-1.879v.002c.261-.206.037-.51-.23-.391a13.62 13.62 0 01-5.446 1.174c-2.596 0-5.107-.748-7.139-1.99-.178-.11-.31.082-.162.222 1.956 1.856 4.5 2.876 7.135 2.862z" fill="#fff"/></svg>