<svg width="34" height="24" fill="none" xmlns="http://www.w3.org/2000/svg"><rect x=".5" y=".5" width="33" height="23" rx="4.5" stroke="#FCFCFC" stroke-opacity=".4"/><path d="M22.296 7.68a.333.333 0 00-.5.25c-.012.11-.031.22-.054.334-.653 2.962-1.964 4.403-4.008 4.403h-3a.333.333 0 00-.326.266l-1 4.688-.179 1.193A1 1 0 0014.207 20h2.007c.46.002.86-.312.97-.76l.81-3.24h1.74c2.052 0 3.471-1.637 3.994-4.609a3.484 3.484 0 00-1.432-3.712z" fill="#F4DAFF"/><path d="M21.667 5.188A3.508 3.508 0 0019.067 4h-5.52a1.66 1.66 0 00-1.65 1.417l-1.713 11.434a1 1 0 00.99 1.149h2.56a.333.333 0 00.325-.267l.944-4.4h2.733c2.372 0 3.94-1.658 4.66-4.933.028-.13.05-.262.066-.395a3.442 3.442 0 00-.795-2.817z" fill="#fff"/></svg>