<svg width="34" height="24" fill="none" xmlns="http://www.w3.org/2000/svg"><rect x=".5" y=".5" width="33" height="23" rx="4.5" stroke="#FCFCFC" stroke-opacity=".4"/><path d="M21.767 11.64c.532.012 1.066-.023 1.595.018.536.1.665.912.189 1.177-.325.175-.71.065-1.063.096h-.72v-1.29zm1.902-1.461c.118.416-.284.79-.685.733h-1.217c.009-.393-.017-.82.013-1.191.487.013.98-.028 1.464.021a.58.58 0 01.425.437zM26.598 4c.023.795.003 1.633.01 2.445-.002 3.3.003 6.6-.003 9.9-.021 1.238-1.117 2.313-2.346 2.337-1.23.005-2.459.001-3.689.002v-4.99c1.34-.006 2.68.015 4.02-.01.621-.039 1.302-.449 1.33-1.132.074-.687-.574-1.162-1.188-1.237-.236-.006-.23-.069 0-.096.586-.127 1.046-.734.874-1.341-.147-.64-.854-.887-1.441-.885-1.198-.009-2.396-.002-3.594-.004.007-.931-.017-1.864.012-2.795.095-1.214 1.22-2.216 2.43-2.194h3.585zM7.032 6.32c.03-1.234 1.131-2.3 2.358-2.318 1.225-.004 2.45 0 3.675-.002-.003 4.132.007 8.264-.005 12.396-.047 1.22-1.136 2.266-2.35 2.287-1.227.005-2.454 0-3.681.002v-5.158c1.192.282 2.442.402 3.658.215.727-.117 1.523-.474 1.769-1.228.18-.645.079-1.324.106-1.986V8.99h-2.105c-.01 1.017.02 2.036-.015 3.051-.057.625-.675 1.022-1.264 1-.73.008-2.178-.529-2.178-.529-.003-1.905.022-4.292.032-6.191z" fill="#fff"/><path d="M13.85 9.61c-.11.024-.022-.377-.05-.53.007-.96-.016-1.923.012-2.884.095-1.22 1.228-2.224 2.444-2.195h3.58c-.003 4.131.007 8.264-.005 12.395-.047 1.22-1.136 2.266-2.35 2.288-1.227.004-2.454 0-3.682.002v-5.652c.839.688 1.978.795 3.023.797.787 0 1.57-.121 2.334-.303v-1.035c-.861.43-1.874.702-2.83.455-.666-.166-1.15-.81-1.139-1.497-.077-.715.342-1.47 1.045-1.683.872-.273 1.823-.064 2.641.291.175.092.353.206.283-.087v-.814c-1.368-.325-2.823-.445-4.197-.091-.398.112-.786.282-1.109.543z" fill="#E7ACFF"/></svg>