<svg width="34" height="24" fill="none" xmlns="http://www.w3.org/2000/svg"><rect x=".5" y=".5" width="33" height="23" rx="4.5" stroke="#FCFCFC" stroke-opacity=".4"/><path d="M10.204 5.001h5.358c.748 0 1.213.628 1.039 1.4l-2.495 11.025c-.176.77-.925 1.398-1.673 1.398H7.075c-.747 0-1.213-.628-1.038-1.398L8.532 6.401c.175-.772.923-1.4 1.672-1.4z" fill="#57246C"/><path d="M15.116 5h6.162c.748 0 .41.628.235 1.4l-2.495 11.026c-.175.77-.12 1.397-.87 1.397h-6.161c-.75 0-1.213-.628-1.037-1.398L13.444 6.4c.177-.772.924-1.4 1.672-1.4z" fill="#6F238D"/><path d="M21.034 5h5.358c.749 0 1.214.628 1.038 1.4l-2.494 11.026c-.176.77-.926 1.397-1.674 1.397h-5.356c-.75 0-1.214-.628-1.039-1.398L19.362 6.4c.174-.772.922-1.4 1.672-1.4z" fill="#8B31AF"/><path d="M11.603 8.533c-.55.006-.713 0-.765-.012l-.393 1.864c-.08.358-.139.612-.337.777a.588.588 0 01-.395.141c-.244 0-.387-.125-.41-.362l-.005-.08.074-.482s.39-1.609.46-1.822a.158.158 0 00.006-.024c-.76.007-.894 0-.903-.012a3.093 3.093 0 00-.024.117l-.399 1.813-.034.154-.066.503c0 .15.028.271.085.374.181.327.7.376.992.376.378 0 .732-.083.971-.234.415-.252.524-.647.62-.998l.046-.18s.402-1.671.47-1.889c.003-.012.004-.018.007-.024zm1.368 1.348c-.097 0-.274.024-.433.105-.058.03-.112.066-.17.1l.052-.193-.028-.032c-.338.07-.413.08-.725.125l-.026.018a9.757 9.757 0 01-.203 1.148c-.05.223-.104.45-.157.672l.015.029a7.2 7.2 0 01.693-.013l.023-.025c.035-.186.04-.23.118-.606.036-.179.113-.571.15-.71a.508.508 0 01.204-.066c.155 0 .136.14.13.195a7.216 7.216 0 01-.121.66l-.039.17c-.027.125-.056.246-.084.37l.012.025c.315-.018.411-.018.68-.013l.031-.025c.049-.29.063-.368.15-.791l.043-.194c.084-.38.126-.573.063-.73-.068-.176-.23-.219-.378-.219zm1.528.398c-.167.033-.274.055-.38.07a16.62 16.62 0 01-.37.056l-.012.012-.012.01c-.017.123-.029.23-.05.357-.02.13-.049.278-.096.49a1.97 1.97 0 01-.077.277c-.02.058-.043.113-.084.273l.01.015.008.014c.15-.008.25-.013.351-.014.102-.004.207 0 .37.001l.014-.012.015-.013c.024-.144.027-.183.041-.254.015-.075.04-.18.1-.46.028-.13.06-.261.09-.395s.062-.265.093-.396l-.005-.016-.006-.015zm.003-.536c-.152-.093-.418-.063-.598.064-.179.125-.2.303-.048.396.15.09.417.063.595-.065.18-.128.201-.304.051-.395zm.92 2.139c.307 0 .623-.088.86-.346.183-.21.266-.523.295-.652.095-.426.021-.625-.071-.747-.14-.184-.388-.244-.645-.244-.155 0-.523.016-.811.29-.207.196-.302.463-.36.72-.058.26-.125.73.295.906.13.057.316.073.437.073zm-.024-.96c.07-.323.155-.594.368-.594.168 0 .18.202.105.526-.013.072-.074.34-.157.453-.058.084-.126.135-.201.135-.023 0-.156 0-.159-.204 0-.101.02-.204.044-.316zm1.948.918l.024-.025c.034-.186.04-.23.115-.606.038-.179.116-.57.153-.71a.492.492 0 01.204-.066c.155 0 .136.14.13.195a6.503 6.503 0 01-.122.66l-.037.17c-.028.125-.058.246-.085.37l.011.025a7.21 7.21 0 01.679-.013l.033-.025c.047-.29.06-.368.149-.79l.042-.195c.085-.38.127-.573.065-.73-.07-.176-.232-.219-.379-.219a1.031 1.031 0 00-.602.206l.049-.194-.026-.032c-.338.07-.415.08-.726.125l-.024.018a9.99 9.99 0 01-.202 1.148c-.051.223-.104.45-.157.672l.014.029c.32-.018.415-.018.692-.013zm2.32.013c.02-.1.138-.691.14-.691 0 0 .1-.434.106-.45 0 0 .031-.045.063-.063h.046c.44 0 .934 0 1.323-.294.264-.202.445-.5.525-.861.021-.09.037-.195.037-.3a.644.644 0 00-.106-.383c-.198-.285-.592-.29-1.047-.293l-.224.003c-.583.007-.817.005-.913-.007l-.023.121-.209.997-.523 2.217c.509-.006.718-.006.805.004zm.387-1.769s.222-.994.22-.99l.008-.05.003-.04.089.01.468.041c.18.072.255.258.203.5a.724.724 0 01-.366.496c-.147.076-.328.083-.514.083h-.12l.01-.05zm1.382.857c-.059.257-.126.727.291.894a.796.796 0 00.374.07.61.61 0 00.357-.169l-.03.118.02.025c.3-.013.393-.013.719-.01l.03-.024c.047-.287.091-.567.215-1.117.06-.264.12-.525.182-.787l-.01-.03c-.336.065-.426.078-.749.126l-.025.02-.01.078a.465.465 0 00-.235-.2c-.144-.057-.482.018-.772.29-.204.194-.302.46-.357.716zm.706.015c.072-.317.154-.585.369-.585.135 0 .206.128.192.348l-.039.177c-.021.095-.045.188-.067.282a.688.688 0 01-.08.164.366.366 0 01-.261.13c-.021 0-.154 0-.158-.2-.001-.1.019-.203.044-.316zm3.687-1.047l-.026-.03a7.64 7.64 0 01-.699.122l-.022.024-.004.014v-.005c-.228.54-.222.424-.407.85l-.002-.053-.046-.922-.03-.03c-.348.069-.356.08-.678.122l-.025.024c-.004.01-.004.023-.006.036l.002.005c.04.211.031.164.071.498.02.164.044.329.063.49.032.271.05.405.088.818-.217.37-.268.51-.478.833l.002.003-.148.24c-.016.025-.032.043-.053.05a.218.218 0 01-.097.014h-.081l-.122.416.417.007a.51.51 0 00.48-.277l.262-.461h-.004l.027-.033c.176-.39 1.516-2.755 1.516-2.755zm-4.393 5.456h-.177l.654-2.225h.216l.07-.23.006.256c-.008.157.112.297.428.274h.366l.126-.429h-.137c-.08 0-.116-.02-.112-.064l-.006-.26h-.678v.002c-.219.004-.873.021-1.005.058-.16.042-.33.167-.33.167l.067-.23h-.634l-.132.456-.662 2.26h-.129l-.126.425h1.263l-.043.141h.622l.041-.141h.175l.137-.46zm-.518-1.773c-.102.029-.29.117-.29.117l.167-.57h.504l-.122.415s-.155.01-.26.038zm.01.813s-.159.02-.263.044a2.53 2.53 0 00-.295.133l.174-.592h.506l-.123.415zm-.283.965h-.505l.147-.5h.503l-.145.5zm1.217-1.38h.727l-.104.349h-.738l-.11.381h.645l-.489.709a.204.204 0 01-.099.085.285.285 0 01-.13.039h-.18l-.123.417h.468a.565.565 0 00.494-.264l.335-.472.072.48c.015.09.078.142.12.162.047.025.096.066.164.072.073.004.127.006.162.006h.23l.138-.467h-.09c-.053 0-.143-.01-.158-.026-.015-.02-.015-.052-.023-.1l-.073-.48h-.3l.132-.16h.736l.113-.382h-.68l.106-.349h.68l.125-.43h-2.026l-.123.43zm-6.149 1.477l.17-.581h.698l.128-.433h-.7l.108-.358h.683l.126-.42h-1.709l-.124.42h.388l-.103.358h-.39l-.128.44h.388l-.227.77c-.03.102.015.14.043.188.03.046.059.076.125.094a.733.733 0 00.18.025h.786l.14-.48-.348.05c-.068 0-.254-.008-.234-.073zm.08-2.785l-.177.33a.38.38 0 01-.102.136c-.027.018-.081.025-.159.025h-.092l-.123.421h.306a.68.68 0 00.315-.083c.058-.032.074-.014.118-.059l.104-.092h.957l.128-.439h-.701l.122-.239h-.696zm1.414 2.794c-.017-.024-.005-.067.02-.156l.262-.891h.931c.136-.002.234-.004.297-.009a.598.598 0 00.224-.077.425.425 0 00.163-.155c.04-.057.105-.182.16-.375l.33-1.128-.966.005s-.298.046-.429.095c-.132.056-.32.211-.32.211l.086-.309h-.596l-.836 2.853c-.03.11-.05.191-.054.24-.002.051.064.103.106.142.05.039.124.032.195.039.074.005.18.009.327.009h.458l.141-.49-.41.04a.107.107 0 01-.09-.044zm.45-1.65h.979l-.062.2c-.01.006-.03-.01-.13.003h-.846l.06-.203zm.197-.673h.986l-.071.242s-.465-.005-.54.01c-.327.058-.518.238-.518.238l.143-.49zm.741 1.546a.108.108 0 01-.038.062c-.02.013-.052.018-.1.018h-.14l.009-.245h-.58l-.023 1.194c-.001.087.007.136.068.176.061.05.25.057.504.057h.363l.131-.447-.316.018-.105.006c-.014-.007-.028-.012-.043-.028-.014-.014-.036-.005-.033-.091l.003-.307.332-.014a.42.42 0 00.32-.117c.063-.054.083-.117.107-.203l.055-.27h-.455l-.058.19z" fill="#FEFEFE"/></svg>