<svg width="34" height="24" fill="none" xmlns="http://www.w3.org/2000/svg"><rect x=".5" y=".5" width="33" height="23" rx="4.5" stroke="#FCFCFC" stroke-opacity=".4"/><path fill-rule="evenodd" clip-rule="evenodd" d="M17.179 16.8a6.803 6.803 0 01-4.398 1.6C9.036 18.4 6 15.4 6 11.7S9.036 5 12.78 5c1.679 0 3.215.603 4.399 1.6A6.802 6.802 0 0121.577 5c3.745 0 6.78 3 6.78 6.7s-3.035 6.7-6.78 6.7a6.802 6.802 0 01-4.398-1.6z" fill="#E7ACFF"/><path fill-rule="evenodd" clip-rule="evenodd" d="M17.179 16.8a6.653 6.653 0 002.382-5.1c0-2.042-.924-3.87-2.382-5.1A6.802 6.802 0 0121.577 5c3.745 0 6.78 3 6.78 6.7s-3.035 6.7-6.78 6.7a6.802 6.802 0 01-4.398-1.6z" fill="#fff"/><path fill-rule="evenodd" clip-rule="evenodd" d="M17.179 16.8a6.653 6.653 0 002.382-5.1c0-2.042-.924-3.87-2.382-5.1a6.653 6.653 0 00-2.382 5.1c0 2.042.924 3.87 2.382 5.1z" fill="#F4DAFF"/></svg>