<svg width="34" height="24" fill="none" xmlns="http://www.w3.org/2000/svg"><rect x=".5" y=".5" width="33" height="23" rx="4.5" stroke="#FCFCFC" stroke-opacity=".4"/><path fill-rule="evenodd" clip-rule="evenodd" d="M16.2 14.822v-2.934h1.515c.621 0 1.145-.208 1.572-.618l.102-.104c.78-.85.73-2.173-.102-2.958a2.162 2.162 0 00-1.572-.63h-2.431v7.244h.917zm0-3.824v-2.53h1.538c.33 0 .644.127.878.358.495.485.506 1.294.028 1.796a1.19 1.19 0 01-.906.376h-1.537zm7.466-.745c-.393-.364-.928-.55-1.606-.55-.871 0-1.526.324-1.959.966l.809.514c.296-.44.7-.659 1.213-.659.324 0 .637.122.882.341.24.208.376.508.376.826v.214c-.353-.196-.797-.3-1.344-.3-.638 0-1.15.15-1.532.456-.381.306-.575.71-.575 1.225-.011.468.188.912.541 1.213.359.323.814.485 1.35.485.632 0 1.133-.283 1.514-.85h.04v.688h.877v-3.056c0-.641-.194-1.15-.586-1.513zm-2.489 3.656a.753.753 0 01-.301-.606c0-.272.125-.497.37-.676.25-.179.564-.272.934-.272.512-.005.91.11 1.196.341 0 .393-.154.734-.456 1.023a1.446 1.446 0 01-1.03.433 1.11 1.11 0 01-.713-.242zM26.222 17l3.064-7.134h-.997l-1.418 3.558h-.017l-1.452-3.558h-.996l2.01 4.639L25.277 17h.945z" fill="#fff"/><path d="M13.036 11.252c0-.283-.023-.566-.069-.843H9.101v1.6h2.215a1.928 1.928 0 01-.82 1.265v1.04h1.321c.775-.722 1.219-1.791 1.219-3.062z" fill="#fff"/><path d="M9.101 15.32c1.105 0 2.039-.37 2.716-1.006l-1.32-1.04c-.37.254-.843.399-1.396.399-1.07 0-1.975-.734-2.3-1.716H5.44v1.074A4.09 4.09 0 009.1 15.32z" fill="#E7ACFF"/><path d="M6.801 11.957a2.544 2.544 0 010-1.595V9.293H5.44a4.177 4.177 0 000 3.732l1.36-1.068z" fill="#DE8DFF"/><path d="M9.101 8.647a2.19 2.19 0 011.572.624l1.173-1.19A3.926 3.926 0 009.1 7a4.092 4.092 0 00-3.66 2.293l1.36 1.074c.325-.988 1.23-1.721 2.3-1.721z" fill="#8B31AF"/></svg>