<svg width="34" height="24" fill="none" xmlns="http://www.w3.org/2000/svg"><rect x=".5" y=".5" width="33" height="23" rx="4.5" stroke="#FCFCFC" stroke-opacity=".4"/><path fill-rule="evenodd" clip-rule="evenodd" d="M6.181 8L3 15.247h3.808l.472-1.156h1.08l.472 1.156h4.191v-.882l.374.882h2.168l.374-.9v.9h8.718l1.06-1.126.992 1.126 4.478.01-3.191-3.613L31.186 8H26.78l-1.032 1.105L24.785 8h-9.483l-.815 1.87L13.654 8h-3.8v.852L9.43 8H6.18zm.737 1.029h1.856l2.11 4.914V9.03h2.034l1.63 3.523L16.05 9.03h2.023v5.2h-1.231l-.01-4.075-1.795 4.075h-1.102l-1.805-4.075v4.075H9.598l-.48-1.166H6.523l-.479 1.165H4.687L6.918 9.03zm17.288 0h-5.007v5.197h4.929l1.589-1.722 1.53 1.722h1.601l-2.326-2.583 2.326-2.614h-1.53l-1.581 1.703-1.531-1.703zM7.82 9.91l-.855 2.077h1.709L7.82 9.909zm12.615 1.146v-.95h3.123l1.363 1.518-1.423 1.526h-3.063v-1.036h2.73v-1.058h-2.73z" fill="#fff"/></svg>