<svg width="74" height="82" fill="none" xmlns="http://www.w3.org/2000/svg"><g filter="url(#filter0_d)"><path d="M41.98 30.856a.956.956 0 00-1.35.084L27.37 45.962a.957.957 0 001.435 1.266l13.26-15.022c.35-.396.312-1-.084-1.35zM29.89 37.35a4.36 4.36 0 002.346-2.396 4.359 4.359 0 00-.032-3.356 4.354 4.354 0 00-2.396-2.35 4.395 4.395 0 00-5.707 2.431 4.344 4.344 0 00.038 3.357 4.368 4.368 0 002.4 2.348 4.364 4.364 0 003.352-.034zm-3.993-3.066a2.444 2.444 0 01-.022-1.888 2.483 2.483 0 012.299-1.551c.306 0 .618.057.919.179a2.453 2.453 0 011.35 1.323 2.45 2.45 0 01.018 1.891 2.457 2.457 0 01-1.322 1.351 2.448 2.448 0 01-1.886.02 2.467 2.467 0 01-1.356-1.325z" fill="#10C8FF"/><path d="M62.21 32.93a.957.957 0 00-.986-.93l-5.499.169 1.241-3.907a.958.958 0 00-.622-1.201l-9.083-2.886-1.548-16.68c-.046-.491-.513-.868-1.008-.868a.956.956 0 00-.895.622L38.52 21.4l-15.773-5.013a.959.959 0 00-1.201.623L10.87 50.604a.957.957 0 00.623 1.202l17.14 5.447.254 8.966c.014.519.44.93.956.93h.027l32.323-.911a.958.958 0 00.929-.984L62.21 32.93zM44.184 11.713l1.097 11.833-4.935-1.569 3.838-10.264zM23.08 18.499l31.773 10.096-10.095 31.773-31.774-10.097L23.08 18.5zm7.693 46.708l-.208-7.342L45.09 62.48a.955.955 0 001.201-.623l8.82-27.756 5.212-.16.859 30.408-30.41.857z" fill="#DE1CFF"/><path d="M41.352 42.33a4.354 4.354 0 00-3.358.032 4.357 4.357 0 00-2.35 2.396 4.349 4.349 0 00.035 3.355 4.354 4.354 0 002.398 2.348 4.37 4.37 0 001.638.32 4.37 4.37 0 001.715-.353 4.354 4.354 0 002.35-2.397 4.356 4.356 0 00-.033-3.354 4.348 4.348 0 00-2.395-2.348zm.653 4.986a2.454 2.454 0 01-1.323 1.351 2.45 2.45 0 01-1.89.018 2.453 2.453 0 01-1.353-1.323 2.45 2.45 0 01-.02-1.89 2.456 2.456 0 011.325-1.35 2.462 2.462 0 011.894-.019 2.453 2.453 0 011.35 1.322 2.46 2.46 0 01.017 1.891z" fill="#10C8FF"/></g><defs><filter id="filter0_d" x="-3" y="-1" width="84" height="84" filterUnits="userSpaceOnUse" color-interpolation-filters="sRGB"><feFlood flood-opacity="0" result="BackgroundImageFix"/><feColorMatrix in="SourceAlpha" values="0 0 0 0 0 0 0 0 0 0 0 0 0 0 0 0 0 0 127 0"/><feOffset dy="4"/><feGaussianBlur stdDeviation="5"/><feColorMatrix values="0 0 0 0 0.893282 0 0 0 0 0.2875 0 0 0 0 1 0 0 0 1 0"/><feBlend in2="BackgroundImageFix" result="effect1_dropShadow"/><feBlend in="SourceGraphic" in2="effect1_dropShadow" result="shape"/></filter></defs></svg>