<svg width="74" height="78" fill="none" xmlns="http://www.w3.org/2000/svg"><g filter="url(#filter0_d)"><path d="M63.772 22.988v-.009a.94.94 0 00-.026-.203c-.005-.02-.012-.041-.019-.062a.945.945 0 00-.09-.204c-.01-.015-.016-.032-.025-.046-.017-.025-.038-.046-.058-.07-.015-.018-.029-.037-.046-.054a.93.93 0 00-.16-.136l-.002-.002-.005-.004L40.146 7.002a.97.97 0 00-1.06 0L30.92 12.36l-7.503 4.923a.95.95 0 00-.282.185l-12.7 8.335a.98.98 0 00-.169.142l-.046.056c-.019.023-.04.043-.057.069-.01.014-.016.03-.025.046a.935.935 0 00-.09.203c-.007.022-.014.043-.019.065a.91.91 0 00-.024.194l-.002.014v21.2c0 .315.16.61.427.784l23.199 15.2.01.005c.066.042.14.074.216.1l.057.018a1 1 0 00.246.035.943.943 0 00.303-.054.943.943 0 00.221-.102l.006-.002.004-.003h.001l28.65-18.803a.938.938 0 00.427-.783V22.988zM39.617 8.917l21.473 14.07-6.792 4.456-21.153-14.279 6.471-4.247zM34.16 40.66L12.686 26.59l11.125-7.3 21.154 14.278L34.16 40.66zm-2.73-26.37l21.153 14.28-5.903 3.873-21.154-14.28 5.903-3.873zm16.18 19.806l5.679-3.727-.203 8.873-5.477 3.537v-8.683zM11.916 28.35l21.286 13.947v18.938L11.917 47.287V28.35zm23.2 32.883V42.295l10.58-6.943v9.171a.94.94 0 00.501.829.975.975 0 00.98-.042l7.378-4.765a.941.941 0 00.432-.767l.243-10.684 6.628-4.35v18.938l-26.742 17.55z" fill="#DE1CFF"/><path d="M31.453 46.974a.96.96 0 00.798-.42.933.933 0 00-.266-1.306l-10.96-7.181a.965.965 0 00-1.327.262.933.933 0 00.266 1.306l10.96 7.181a.962.962 0 00.53.158zm.531 3.186l-6.276-4.112a.966.966 0 00-1.327.262.933.933 0 00.266 1.306l6.277 4.113a.963.963 0 00.53.157.958.958 0 00.796-.42.933.933 0 00-.266-1.305z" fill="#10C8FF"/></g><defs><filter id="filter0_d" x="-5" y="-2" width="84" height="83" filterUnits="userSpaceOnUse" color-interpolation-filters="sRGB"><feFlood flood-opacity="0" result="BackgroundImageFix"/><feColorMatrix in="SourceAlpha" values="0 0 0 0 0 0 0 0 0 0 0 0 0 0 0 0 0 0 127 0"/><feOffset dy="4"/><feGaussianBlur stdDeviation="5"/><feColorMatrix values="0 0 0 0 0.893282 0 0 0 0 0.2875 0 0 0 0 1 0 0 0 1 0"/><feBlend in2="BackgroundImageFix" result="effect1_dropShadow"/><feBlend in="SourceGraphic" in2="effect1_dropShadow" result="shape"/></filter></defs></svg>