<svg width="37" height="49" fill="none" xmlns="http://www.w3.org/2000/svg"><path d="M18.5 0C8.366 0 .125 8.241.125 18.375c0 12.737 16.587 29.47 17.29 30.178a1.538 1.538 0 002.17 0c.703-.708 17.29-17.441 17.29-30.178C36.875 8.241 28.634 0 18.5 0zm0 45.255c-3.657-3.914-15.313-17.15-15.313-26.88 0-8.443 6.87-15.313 15.313-15.313 8.443 0 15.313 6.87 15.313 15.313 0 9.72-11.656 22.966-15.313 26.88z" fill="#10C8FF"/><path d="M18.5 9.188c-5.065 0-9.188 4.122-9.188 9.187 0 5.065 4.123 9.188 9.188 9.188s9.188-4.123 9.188-9.188-4.123-9.188-9.188-9.188zm0 15.312a6.131 6.131 0 01-6.125-6.125A6.131 6.131 0 0118.5 12.25a6.131 6.131 0 016.125 6.125A6.131 6.131 0 0118.5 24.5z" fill="#10C8FF"/></svg>