<svg width="42" height="30" fill="none" xmlns="http://www.w3.org/2000/svg"><path d="M38.309.234H3.69A3.697 3.697 0 000 3.926v22.148a3.697 3.697 0 003.691 3.692H38.31A3.696 3.696 0 0042 26.074V3.926A3.695 3.695 0 0038.309.234zm-.517 2.461L23.61 16.802A3.667 3.667 0 0121 17.883a3.67 3.67 0 01-2.613-1.083c-.3-.3-13.137-13.068-14.179-14.105h33.584zM2.46 25.573V4.428l10.634 10.579L2.461 25.573zm1.749 1.732l10.63-10.563 1.81 1.8A6.112 6.112 0 0021 20.344a6.11 6.11 0 004.348-1.8l1.812-1.802 10.63 10.563H4.21zm35.33-1.732L28.904 15.007 39.539 4.428v21.145z" fill="#10C8FF"/></svg>