<svg width="22" height="23" fill="none" xmlns="http://www.w3.org/2000/svg"><path d="M11 2.07c2.94 0 3.287.014 4.443.068 1.074.05 1.654.238 2.041.396.511.206.88.458 1.263.858.387.404.623.786.821 1.32.15.405.33 1.016.378 2.134.052 1.213.064 1.577.064 4.645 0 3.073-.012 3.437-.064 4.645-.047 1.123-.228 1.73-.378 2.134-.198.534-.438.92-.82 1.32a3.373 3.373 0 01-1.264.858c-.387.158-.971.346-2.041.396-1.16.054-1.508.067-4.443.067-2.94 0-3.287-.013-4.443-.067-1.074-.05-1.654-.238-2.041-.396a3.39 3.39 0 01-1.263-.858 3.557 3.557 0 01-.821-1.32c-.15-.405-.33-1.015-.378-2.134-.052-1.213-.065-1.577-.065-4.645 0-3.073.013-3.437.065-4.645.047-1.123.228-1.73.378-2.134.198-.534.438-.92.82-1.32a3.373 3.373 0 011.264-.858c.387-.158.971-.346 2.041-.396 1.156-.054 1.504-.067 4.443-.067zM11 0C8.014 0 7.64.013 6.467.067 5.298.121 4.495.32 3.798.602a5.351 5.351 0 00-1.95 1.33A5.666 5.666 0 00.576 3.967c-.27.732-.46 1.567-.512 2.79C.013 7.986 0 8.376 0 11.5c0 3.122.013 3.513.064 4.74.052 1.221.241 2.061.512 2.789.283.76.657 1.401 1.272 2.04a5.359 5.359 0 001.946 1.325c.7.283 1.5.48 2.669.534 1.173.054 1.546.067 4.533.067 2.986 0 3.36-.013 4.533-.067 1.169-.054 1.972-.251 2.668-.534a5.359 5.359 0 001.947-1.326c.61-.638.988-1.28 1.267-2.035.271-.732.46-1.567.512-2.79.051-1.226.064-1.616.064-4.738 0-3.123-.013-3.513-.064-4.74-.052-1.222-.241-2.062-.512-2.79a5.42 5.42 0 00-1.259-2.043A5.359 5.359 0 0018.206.606c-.7-.283-1.5-.48-2.668-.534C14.36.013 13.986 0 11 0z" fill="#fff"/><path d="M11 5.593c-3.12 0-5.65 2.646-5.65 5.907s2.53 5.907 5.65 5.907c3.12 0 5.65-2.646 5.65-5.907S14.12 5.593 11 5.593zm0 9.739c-2.024 0-3.665-1.716-3.665-3.832 0-2.116 1.641-3.832 3.665-3.832s3.665 1.716 3.665 3.832c0 2.116-1.641 3.832-3.665 3.832zm7.193-9.972c0 .763-.593 1.378-1.32 1.378-.73 0-1.318-.62-1.318-1.379 0-.764.593-1.379 1.319-1.379s1.319.62 1.319 1.38z" fill="#fff"/></svg>