<svg width="21" height="22" fill="none" xmlns="http://www.w3.org/2000/svg"><path d="M10.5 0C4.7 0 0 4.924 0 11c0 4.662 2.769 8.641 6.673 10.244-.09-.872-.176-2.204.037-3.154l1.23-5.466s-.315-.657-.315-1.633c0-1.53.845-2.672 1.899-2.672.894 0 1.329.704 1.329 1.55 0 .946-.575 2.356-.87 3.662-.246 1.096.525 1.99 1.555 1.99 1.866 0 3.301-2.063 3.301-5.037 0-2.634-1.804-4.477-4.384-4.477-2.986 0-4.742 2.346-4.742 4.774 0 .945.35 1.96.784 2.51a.34.34 0 01.074.313c-.078.348-.259 1.096-.292 1.246-.045.202-.151.245-.352.146-1.313-.64-2.133-2.647-2.133-4.262 0-3.472 2.408-6.656 6.936-6.656 3.642 0 6.472 2.72 6.472 6.355 0 3.79-2.28 6.84-5.447 6.84-1.062 0-2.063-.58-2.408-1.263 0 0-.525 2.101-.652 2.617-.238.954-.877 2.153-1.304 2.883.984.318 2.026.49 3.109.49C16.3 22 21 17.076 21 11S16.3 0 10.5 0z" fill="#fff"/></svg>