<svg width="22" height="22" fill="none" xmlns="http://www.w3.org/2000/svg"><path d="M21.78 6.6s-.214-1.517-.876-2.183c-.838-.876-1.774-.88-2.204-.932-3.077-.224-7.696-.224-7.696-.224h-.008s-4.62 0-7.696.224c-.43.051-1.366.056-2.204.932C.434 5.083.223 6.6.223 6.6S0 8.383 0 10.162v1.667c0 1.78.22 3.563.22 3.563s.214 1.516.871 2.182c.838.877 1.938.847 2.428.941 1.762.168 7.481.22 7.481.22s4.623-.01 7.7-.228c.43-.052 1.366-.056 2.204-.933.662-.666.877-2.182.877-2.182s.219-1.78.219-3.563v-1.667c0-1.779-.22-3.562-.22-3.562zM8.728 13.853V7.67l5.942 3.102-5.942 3.081z" fill="#fff"/></svg>