<svg width="40" height="40" fill="none" xmlns="http://www.w3.org/2000/svg"><path d="M39.221 36.51H33.9V2.807a.683.683 0 00-.607-.68L15.323.1a.684.684 0 00-.76.679v1.344H6.785a.684.684 0 00-.684.684V36.51H.78a.684.684 0 100 1.367h13.785v1.344a.684.684 0 00.761.68l17.93-2.024h5.967a.684.684 0 000-1.367zM7.468 3.49h7.096v1.758H9.909a.684.684 0 00-.684.684V36.51H7.467V3.49zm3.125 33.02V6.615h3.97V36.51h-3.97zM15.93 1.544l16.601 1.875v33.164L15.93 38.458V1.544z" fill="#CD2AFF"/><path d="M18.877 17.966a2.034 2.034 0 100 4.068 2.034 2.034 0 000-4.068zm0 2.701a.668.668 0 110-1.335.668.668 0 010 1.335z" fill="#CD2AFF"/></svg>