<svg width="44" height="44" fill="none" xmlns="http://www.w3.org/2000/svg"><path d="M42.136 18.47a17.205 17.205 0 00-6.5-7.024l.963-2.92.843.277a1.595 1.595 0 002.014-1.017l.757-2.3a1.598 1.598 0 00-1.017-2.015L36.11 2.456a.645.645 0 00-.403 1.224l3.086 1.016a.31.31 0 01.196.387l-.758 2.3a.304.304 0 01-.153.176.307.307 0 01-.234.02l-9.047-2.98a.308.308 0 01-.193-.387l.758-2.3a.308.308 0 01.387-.196l3.207 1.058a.644.644 0 00.404-1.224L30.15.492a1.586 1.586 0 00-1.217.093 1.583 1.583 0 00-.797.924l-.758 2.3a1.599 1.599 0 001.015 2.015l.844.277-.963 2.92a17.162 17.162 0 00-3.97.09.644.644 0 10.177 1.277 15.872 15.872 0 017.205.658 15.927 15.927 0 019.297 8.005 15.92 15.92 0 01.913 12.233c-2.763 8.393-11.841 12.973-20.237 10.21a15.918 15.918 0 01-9.295-8.004 15.922 15.922 0 01-.912-12.234 16.107 16.107 0 0110.22-10.215.645.645 0 00-.404-1.224c-1.094.36-2.152.833-3.153 1.403h-5.163a.644.644 0 100 1.288h3.214c-.575.438-1.123.91-1.638 1.415a17.35 17.35 0 00-4.085 6.32H5.938a.644.644 0 100 1.288h4.083a17.193 17.193 0 00-.41 7.731H2.727a.644.644 0 100 1.29h7.164c.31 1.203.75 2.382 1.323 3.518a17.373 17.373 0 002.98 4.215H8.4a.644.644 0 100 1.289h7.176a17.294 17.294 0 005.681 3.144c1.792.59 3.612.87 5.403.87 7.276 0 14.066-4.625 16.461-11.901a17.199 17.199 0 00-.986-13.216zM29.575 9.195l.887-2.69 4.912 1.618-.886 2.69a17.57 17.57 0 00-4.913-1.618zM.644 12.508h8.014a.644.644 0 100-1.288H.644a.644.644 0 100 1.288z" fill="#CD2AFF"/><path d="M3.222 15.73a.644.644 0 100 1.29H9.28a.644.644 0 100-1.29H3.222zm2.6 9.665a.644.644 0 00-.644-.644H.644a.644.644 0 100 1.289h4.534a.644.644 0 00.644-.645zM8.4 34.418a.644.644 0 00-.645-.645H4.598a.644.644 0 100 1.29h3.157a.644.644 0 00.644-.645zm5.322-12.413c-2.351 7.143 1.546 14.867 8.687 17.217 1.404.463 2.846.692 4.282.692 2.104 0 4.194-.492 6.127-1.468a13.55 13.55 0 006.81-7.909l.006-.016.005-.017c2.33-7.131-1.57-14.84-8.697-17.186a13.514 13.514 0 00-8.196-.11c-.761.23-1.503.528-2.213.887a13.553 13.553 0 00-6.811 7.91zm24.874 7.487l-9.133-3.008a2.773 2.773 0 00-.29-1.494 2.772 2.772 0 00-1.029-1.12l3-9.11c5.87 2.273 9.098 8.657 7.452 14.732zM27.36 27.587a1.503 1.503 0 01-2.102-1.81 1.503 1.503 0 011.894-.956h.002c.38.126.689.392.87.75.18.357.21.764.085 1.145v.001c-.125.38-.391.69-.75.87zm-.696-13.671c1.09 0 2.183.146 3.257.44l-3 9.111a2.773 2.773 0 00-1.94.57l-4.3-3.919a.644.644 0 10-.868.953l4.355 3.97a2.773 2.773 0 00.025 2.463 2.77 2.77 0 002.18 1.514l.22 1.875a.645.645 0 101.28-.15l-.22-1.88a2.77 2.77 0 001.407-1.154l9.137 3.008a12.248 12.248 0 01-5.375 6.264l-.72-1.426a.644.644 0 10-1.15.58l.72 1.429a12.244 12.244 0 01-8.241.62l.502-1.523a.645.645 0 00-1.224-.403l-.502 1.523a12.298 12.298 0 01-6.253-5.398l1.421-.717a.644.644 0 10-.58-1.15l-1.42.715a12.3 12.3 0 01-.607-8.23l1.501.495a.642.642 0 00.814-.41.644.644 0 00-.41-.814l-1.5-.494a12.252 12.252 0 015.388-6.236l.706 1.397a.645.645 0 101.15-.582l-.704-1.393a12.26 12.26 0 014.95-1.049z" fill="#CD2AFF"/></svg>