<svg width="23" height="27" fill="none" xmlns="http://www.w3.org/2000/svg"><g clip-path="url(#clip0)"><path fill-rule="evenodd" clip-rule="evenodd" d="M17.31 25.071H5.692c-.876 0-1.216-.224-1.664-.676-.455-.46-.484-1.042-.554-1.854-.227-2.65-.695-5.869-.951-8.566-.07-.737-.172-1.462-.24-2.17-.07-.73-.188-1.47-.245-2.164h3.714v1.929c-.62 0-.959.44-.959 1.085 0 .376.465.844.839.844h2.156c.694 0 1.194-1.088.537-1.685-.17-.154-.337-.244-.656-.244V9.641h7.666v1.929c-.62 0-.958.44-.958 1.085 0 .376.465.844.838.844h2.157c.64 0 1.226-1.013.527-1.676-.176-.167-.316-.253-.647-.253V9.641h3.713l-.24 2.108c-.106 1.23-.412 3.184-.478 4.281-.044.717-.177 1.46-.238 2.171-.123 1.433-.34 2.863-.475 4.284-.08.83-.09 1.38-.53 1.878-.406.458-.85.708-1.692.708zM7.669 5.965c0-.824.218-1.642.624-2.265.124-.19.301-.407.444-.578.105-.127.369-.32.522-.439.233-.18.336-.218.605-.355 2.39-1.212 5.471.498 5.471 3.637v1.748H7.668V5.965zM5.75 5.543v2.17H.839c-.393 0-.838.387-.838.964l.55 5.293c.266 2.448.682 5.553.89 7.965.143 1.68.2 3.123 1.639 4.257.492.387 1.29.808 2.132.808H17.79c.438 0 .851-.124 1.182-.257.319-.129.72-.34.958-.543 1.407-1.2 1.472-2.402 1.632-4.264l.59-5.314c.117-1.058.85-7.317.85-8.065 0-.399-.443-.844-.84-.844h-4.91c0-1.585.162-2.97-.539-4.4a5.475 5.475 0 00-.505-.879c-.101-.14-.178-.252-.29-.372-.076-.081-.104-.1-.173-.187-.358-.453-.178-.182-.515-.506-.136-.13-.242-.206-.4-.321-2.227-1.618-5.486-1.325-7.419.62-.139.14-.165.215-.297.364a4.394 4.394 0 00-.32.402c-.575.802-1.043 1.998-1.043 3.11v-.001z" fill="#fff"/></g><defs><clipPath id="clip0"><path fill="#fff" d="M0 0h23v27H0z"/></clipPath></defs></svg>