<svg width="396" height="396" fill="none" xmlns="http://www.w3.org/2000/svg"><path d="M319.912 152.683a8.244 8.244 0 00-7.177-4.182H204.66l18.119-138.442a8.3 8.3 0 00-5.48-8.686 8.295 8.295 0 00-9.727 3.295L76.142 234.93a8.248 8.248 0 002.852 11.436 8.255 8.255 0 004.174 1.135h106.46L175.269 386.15a8.305 8.305 0 005.66 8.509 8.298 8.298 0 009.625-3.433l129.259-230.237a8.24 8.24 0 001.171-4.139 8.24 8.24 0 00-1.072-4.167z" fill="url(#paint0_linear)"/><defs><linearGradient id="paint0_linear" x1="197.952" y1=".896" x2="197.952" y2="395.082" gradientUnits="userSpaceOnUse"><stop stop-color="#fff"/><stop offset="1" stop-color="#fff" stop-opacity="0"/></linearGradient></defs></svg>