<svg width="15" height="15" fill="none" xmlns="http://www.w3.org/2000/svg"><path d="M8.906 2.813H3.281a.469.469 0 000 .937h5.625a.469.469 0 000-.938zM7.031 4.688h-3.75a.469.469 0 000 .937h3.75a.469.469 0 000-.938z" fill="#fff"/><path d="M10.313 0H1.874C.841 0 0 .84 0 1.875v9.375a.468.468 0 00.769.36L3.45 9.375h6.861c1.035 0 1.876-.84 1.876-1.875V1.875A1.876 1.876 0 0010.312 0zm.937 7.5c0 .517-.42.938-.938.938h-7.03a.468.468 0 00-.3.108L.936 10.25V1.875c0-.517.42-.938.938-.938h8.438c.517 0 .937.421.937.938V7.5z" fill="#fff"/><path d="M13.125 3.75a.469.469 0 000 .938c.518 0 .938.42.938.937v7.93L12.48 12.29a.473.473 0 00-.293-.102H5.625a.938.938 0 01-.938-.938v-.469a.469.469 0 00-.937 0v.469c0 1.034.84 1.875 1.875 1.875h6.398l2.215 1.773a.473.473 0 00.497.056.47.47 0 00.265-.423V5.625c0-1.034-.84-1.875-1.875-1.875z" fill="#fff"/></svg>