<svg width="124" height="90" fill="none" xmlns="http://www.w3.org/2000/svg"><path d="M27.342 82.51a7.63 7.63 0 01-.572 2.962 7.415 7.415 0 01-1.554 2.374 7.275 7.275 0 01-2.306 1.577 7.016 7.016 0 01-2.837.577 6.984 6.984 0 01-2.823-.577 7.349 7.349 0 01-2.312-1.577 7.362 7.362 0 01-1.562-2.374 7.628 7.628 0 01-.57-2.963c0-1.078.19-2.076.57-2.996a7.34 7.34 0 011.562-2.38 7.26 7.26 0 012.312-1.57 7.065 7.065 0 012.823-.571c1.01 0 1.956.18 2.837.537.882.358 1.65.867 2.306 1.525a7.23 7.23 0 011.554 2.373c.381.924.572 1.951.572 3.082zm-3.654 0c0-.584-.096-1.112-.286-1.585-.19-.473-.45-.88-.777-1.22a3.362 3.362 0 00-1.15-.782 3.645 3.645 0 00-1.402-.272c-.496 0-.963.091-1.401.272a3.29 3.29 0 00-1.143.782c-.324.34-.578.747-.764 1.22-.186.473-.28 1-.28 1.584 0 .548.093 1.057.28 1.525.186.469.44.875.764 1.22.323.344.704.616 1.143.815.438.199.905.298 1.401.298.497 0 .964-.092 1.402-.278a3.495 3.495 0 001.15-.782 3.67 3.67 0 00.777-1.22c.19-.477.286-1.003.286-1.578zm8.77 7.225h-3.654V69.888h3.654v12.515l5.408-6.84h4.173l-4.717 5.912 4.717 8.26h-4.173l-2.883-5.157-2.525 3.34v1.817z" fill="#fff"/><path d="M56.244 82.51a7.63 7.63 0 01-.572 2.962 7.414 7.414 0 01-1.554 2.374 7.274 7.274 0 01-2.306 1.577 7.016 7.016 0 01-2.837.577 6.981 6.981 0 01-2.823-.577 7.348 7.348 0 01-2.313-1.577 7.362 7.362 0 01-1.56-2.374 7.628 7.628 0 01-.572-2.963c0-1.078.19-2.076.571-2.996a7.34 7.34 0 011.561-2.38 7.26 7.26 0 012.313-1.57 7.062 7.062 0 012.823-.571c1.01 0 1.956.18 2.837.537a6.86 6.86 0 012.306 1.525 7.228 7.228 0 011.554 2.373c.381.924.572 1.951.572 3.082zm-3.655 0c0-.584-.095-1.112-.285-1.585-.19-.473-.45-.88-.777-1.22a3.362 3.362 0 00-1.15-.782 3.644 3.644 0 00-1.402-.272 3.64 3.64 0 00-1.402.272c-.438.181-.82.442-1.142.782a3.73 3.73 0 00-.765 1.22c-.186.473-.279 1-.279 1.584 0 .548.093 1.057.28 1.525.186.469.44.875.764 1.22.323.344.704.616 1.142.815.439.199.906.298 1.402.298a3.55 3.55 0 001.402-.278 3.495 3.495 0 001.15-.782c.327-.336.586-.742.777-1.22.19-.477.285-1.003.285-1.578zm8.744 7.225l-5.421-14.2h4.132l3.11 8.857 3.096-8.856h4.145l-5.421 14.199h-3.64zm23.242-7.225a7.63 7.63 0 01-.572 2.962c-.38.915-.9 1.706-1.555 2.374a7.278 7.278 0 01-2.305 1.577 7.014 7.014 0 01-2.837.577 6.986 6.986 0 01-2.824-.577 7.348 7.348 0 01-2.312-1.577 7.366 7.366 0 01-1.56-2.374 7.628 7.628 0 01-.572-2.963c0-1.078.19-2.076.571-2.996a7.353 7.353 0 011.561-2.38 7.26 7.26 0 012.312-1.57 7.067 7.067 0 012.824-.571c1.01 0 1.955.18 2.837.537.88.358 1.65.867 2.305 1.525a7.227 7.227 0 011.555 2.373c.381.924.572 1.951.572 3.082zm-3.655 0c0-.584-.095-1.112-.286-1.585-.19-.473-.45-.88-.777-1.22a3.363 3.363 0 00-1.149-.782 3.645 3.645 0 00-1.402-.272 3.64 3.64 0 00-1.402.272c-.438.181-.82.442-1.143.782-.323.34-.578.747-.764 1.22-.186.473-.28 1-.28 1.584 0 .548.094 1.057.28 1.525.186.469.44.875.764 1.22a3.6 3.6 0 001.143.815c.439.199.906.298 1.402.298a3.55 3.55 0 001.402-.278 3.494 3.494 0 001.15-.782 3.67 3.67 0 00.776-1.22c.19-.477.286-1.003.286-1.578zm8.77 7.225h-3.653V69.888h3.654v19.847zm9.356 0a6.189 6.189 0 01-2.472-.498 6.436 6.436 0 01-2.026-1.364 6.434 6.434 0 01-1.369-2.023 6.159 6.159 0 01-.498-2.465v-4.217h-1.767v-3.606h1.767v-5.674h3.614v5.674h5.501v3.606h-5.501v4.216c0 .38.07.736.212 1.068a2.735 2.735 0 001.462 1.458 2.68 2.68 0 001.077.219h2.75v3.606h-2.75zm18.019 0h-.877l-1.409-1.949c-.345.31-.71.6-1.096.868-.385.27-.791.504-1.216.703a7.467 7.467 0 01-1.309.47 5.454 5.454 0 01-1.362.173 7.859 7.859 0 01-2.823-.504 6.707 6.707 0 01-2.313-1.464c-.659-.641-1.18-1.426-1.561-2.354-.381-.928-.571-1.984-.571-3.168 0-1.105.19-2.12.571-3.043a7.265 7.265 0 011.561-2.38 7.049 7.049 0 012.313-1.544 7.28 7.28 0 012.823-.55c.461 0 .917.058 1.369.172.452.115.89.274 1.315.477.425.203.831.442 1.216.716.386.274.747.57 1.083.889l1.409-1.684h.877v14.172zm-3.655-7.226a3.76 3.76 0 00-.285-1.438 4.142 4.142 0 00-.778-1.233 3.864 3.864 0 00-1.149-.862 3.125 3.125 0 00-1.402-.325 3.9 3.9 0 00-1.401.252c-.439.168-.82.416-1.143.743a3.459 3.459 0 00-.764 1.213c-.186.482-.28 1.032-.28 1.65 0 .62.094 1.17.28 1.651.185.482.44.887.764 1.213.323.327.704.575 1.143.743a3.88 3.88 0 001.401.252c.496 0 .964-.108 1.402-.325a3.847 3.847 0 001.149-.862c.328-.358.587-.769.778-1.233a3.76 3.76 0 00.285-1.438zM3.654 89.735H0V69.888h3.654v12.515l5.408-6.84h4.173l-4.718 5.912 4.718 8.26H9.062L6.18 84.578l-2.525 3.34v1.817zm117.718-10.264a1.916 1.916 0 001.918-1.914 1.916 1.916 0 00-1.918-1.914 1.917 1.917 0 00-1.919 1.914 1.917 1.917 0 001.919 1.914zm1.858-.06a2.623 2.623 0 01-1.858.769 2.626 2.626 0 01-2.629-2.623 2.626 2.626 0 012.629-2.623 2.623 2.623 0 011.858 4.478z" fill="#fff"/><path d="M120.233 79.018v-2.99h1.274c.321 0 .554.027.699.081a.687.687 0 01.348.286.855.855 0 01.132.471c0 .225-.066.41-.198.556-.132.147-.329.238-.591.277.131.076.238.159.323.25.085.091.199.254.343.486l.365.583h-.723l-.434-.653a4.04 4.04 0 00-.32-.438.468.468 0 00-.182-.124 1.02 1.02 0 00-.306-.033h-.123v1.248h-.607zm.607-1.724h.448c.29 0 .47-.013.543-.037a.327.327 0 00.17-.127.39.39 0 00.061-.225.36.36 0 00-.081-.244.37.37 0 00-.228-.117 5.029 5.029 0 00-.441-.01h-.472v.76z" fill="#fff"/><path fill-rule="evenodd" clip-rule="evenodd" d="M57.56 66.455c16.574.138 14.1 2.15 14.094-13.62-.002-8.846-14.536 1.462-18.093-8.468-2.247-6.273-1.728-18.588 9.197-18.602 19.324-.027 17.507 1.985 17.507-12.723C80.265-2.102 82.514.098 59.772.127 48.939.142 58.1 16.63 52.858 23.543c-4.486-4.679-4.443-6.016-9.714-6.016v-2.27h-7.277v7.22h7.292V20.35l.274.01 7.297 5.138c-6.374 4.045-20.137-3.281-20.217 5.571a629.365 629.365 0 00-.022 5.665h-7.636v-2.732L15.7 38.128l7.173 4.057V39.39h7.624c.017 11.503-.562 9.06 16.37 9.38a8.02 8.02 0 012.849.573L42.6 54.348c-1.606-3.738-7.377-2.065-6.642 2.028a3.495 3.495 0 006.718.588l.8.007c3.906-.026 5.242-2.526 8.617-6.066 5.276 5.198-1.306 15.494 5.465 15.55zM46.093 35.393l-6.628 10.739 1.66-7.365-4.338.863 6.454-10.112-1.188 7.128 4.04-1.253z" fill="url(#paint0_linear)"/><defs><linearGradient id="paint0_linear" x1="66.226" y1="66.218" x2="71.673" y2="-6.188" gradientUnits="userSpaceOnUse"><stop stop-color="#00D6FF"/><stop offset=".561" stop-color="#7F6BFF"/><stop offset="1" stop-color="#F0F"/></linearGradient></defs></svg>