<svg width="156" height="113" fill="none" xmlns="http://www.w3.org/2000/svg"><g clip-path="url(#clip0)" fill="#fff"><path d="M34.398 103.595c0 1.332-.24 2.572-.719 3.72a9.3 9.3 0 01-1.956 2.98 9.155 9.155 0 01-2.9 1.981 8.839 8.839 0 01-3.57.724 8.799 8.799 0 01-3.552-.724 9.25 9.25 0 01-2.908-1.981 9.239 9.239 0 01-1.965-2.98c-.479-1.148-.718-2.388-.718-3.72 0-1.353.24-2.607.718-3.762a9.217 9.217 0 011.965-2.988 9.134 9.134 0 012.908-1.973 8.902 8.902 0 013.553-.716c1.27 0 2.46.225 3.569.675a8.63 8.63 0 012.9 1.914c.825.827 1.477 1.82 1.956 2.98.48 1.16.719 2.45.719 3.87zm-4.597 0c0-.733-.12-1.395-.36-1.989a4.73 4.73 0 00-.977-1.532 4.233 4.233 0 00-1.446-.982 4.593 4.593 0 00-1.764-.341c-.624 0-1.212.114-1.764.341a4.143 4.143 0 00-1.438.982 4.69 4.69 0 00-.961 1.532c-.234.594-.35 1.256-.35 1.989 0 .688.116 1.326.35 1.914.234.589.555 1.098.961 1.531a4.48 4.48 0 001.438 1.024c.552.25 1.14.375 1.764.375a4.47 4.47 0 003.21-1.332c.412-.421.738-.931.977-1.531.24-.599.36-1.26.36-1.981zm11.033 9.072h-4.597V87.749h4.597v15.713l6.804-8.59h5.25l-5.935 7.424 5.934 10.371h-5.249l-3.627-6.475-3.177 4.195v2.28z"/><path d="M70.758 103.595c0 1.332-.24 2.572-.719 3.72a9.301 9.301 0 01-1.956 2.98 9.157 9.157 0 01-2.9 1.981 8.84 8.84 0 01-3.569.724 8.796 8.796 0 01-3.552-.724 9.25 9.25 0 01-2.91-1.981 9.235 9.235 0 01-1.963-2.98c-.48-1.148-.719-2.388-.719-3.72 0-1.353.24-2.607.719-3.762a9.214 9.214 0 011.964-2.988 9.135 9.135 0 012.909-1.973 8.898 8.898 0 013.552-.716c1.27 0 2.46.225 3.57.675a8.632 8.632 0 012.9 1.914c.824.827 1.476 1.82 1.955 2.98.48 1.16.72 2.45.72 3.87zm-4.597 0c0-.733-.12-1.395-.36-1.989a4.735 4.735 0 00-.977-1.532 4.233 4.233 0 00-1.446-.982 4.593 4.593 0 00-1.764-.341c-.624 0-1.212.114-1.764.341a4.142 4.142 0 00-1.437.982 4.69 4.69 0 00-.962 1.532c-.234.594-.35 1.256-.35 1.989 0 .688.116 1.326.35 1.914.235.589.555 1.098.962 1.531a4.48 4.48 0 001.437 1.024c.552.25 1.14.375 1.764.375a4.47 4.47 0 003.21-1.332c.412-.421.738-.931.978-1.531.24-.599.359-1.26.359-1.981zm11.001 9.072L70.34 94.839h5.199l3.912 11.12 3.895-11.12h5.215l-6.82 17.828h-4.58zm29.238-9.072c0 1.332-.239 2.572-.719 3.72a9.294 9.294 0 01-1.956 2.98 9.165 9.165 0 01-2.9 1.981 8.838 8.838 0 01-3.569.724 8.801 8.801 0 01-3.553-.724 9.248 9.248 0 01-2.909-1.981 9.24 9.24 0 01-1.963-2.98c-.48-1.148-.72-2.388-.72-3.72 0-1.353.24-2.607.72-3.762a9.22 9.22 0 011.963-2.988 9.132 9.132 0 012.91-1.973 8.904 8.904 0 013.552-.716 9.41 9.41 0 013.569.675 8.64 8.64 0 012.9 1.914c.825.827 1.477 1.82 1.956 2.98.48 1.16.719 2.45.719 3.87zm-4.598 0c0-.733-.119-1.395-.359-1.989a4.756 4.756 0 00-.977-1.532 4.24 4.24 0 00-1.446-.982 4.592 4.592 0 00-1.764-.341c-.624 0-1.212.114-1.764.341a4.144 4.144 0 00-1.438.982 4.69 4.69 0 00-.961 1.532c-.234.594-.351 1.256-.351 1.989 0 .688.117 1.326.351 1.914.234.589.555 1.098.961 1.531.407.433.886.775 1.438 1.024.552.25 1.14.375 1.764.375a4.47 4.47 0 003.21-1.332c.411-.421.737-.931.977-1.531.24-.599.359-1.26.359-1.981zm11.034 9.072h-4.597V87.749h4.597v24.918zm11.771 0a7.8 7.8 0 01-3.11-.624 8.07 8.07 0 01-4.271-4.253 7.708 7.708 0 01-.627-3.096V99.4h-2.224v-4.527h2.224v-7.124h4.547v7.124h6.92V99.4h-6.92v5.294c0 .477.089.924.267 1.34.179.416.424.78.736 1.09.312.311.68.558 1.103.741a3.38 3.38 0 001.355.274h3.459v4.528h-3.459zm22.668 0h-1.104l-1.771-2.446a14.52 14.52 0 01-1.38 1.089 10.21 10.21 0 01-1.53.883 9.465 9.465 0 01-1.646.591 6.888 6.888 0 01-1.714.216 9.924 9.924 0 01-3.552-.632 8.453 8.453 0 01-2.909-1.839c-.83-.805-1.485-1.79-1.964-2.955-.479-1.166-.718-2.492-.718-3.979 0-1.386.239-2.66.718-3.82a9.108 9.108 0 011.964-2.988 8.869 8.869 0 012.909-1.939 9.18 9.18 0 013.552-.69c.58 0 1.154.072 1.722.216.569.144 1.12.344 1.655.599a10.33 10.33 0 011.53.899c.485.344.939.716 1.362 1.115l1.772-2.114h1.104v17.795-.001zm-4.598-9.072a4.71 4.71 0 00-.359-1.805 5.208 5.208 0 00-.978-1.549 4.876 4.876 0 00-1.446-1.082 3.938 3.938 0 00-1.764-.408c-.624 0-1.211.107-1.763.317a4.019 4.019 0 00-1.438.932 4.374 4.374 0 00-.961 1.524c-.234.604-.351 1.295-.351 2.071 0 .777.117 1.468.351 2.073a4.36 4.36 0 00.961 1.523c.407.41.886.721 1.438.932a4.892 4.892 0 001.763.316c.625 0 1.212-.135 1.764-.407a4.874 4.874 0 001.446-1.082c.412-.45.738-.966.978-1.548.24-.583.359-1.185.359-1.807zm-138.08 9.072H0V87.749h4.597v15.713l6.804-8.59h5.249l-5.935 7.424 5.935 10.371H11.4l-3.626-6.475-3.177 4.195v2.28zM152.693 99.78c.667 0 1.271-.27 1.707-.703a2.392 2.392 0 000-3.4 2.414 2.414 0 00-1.707-.703 2.411 2.411 0 00-2.413 2.403 2.412 2.412 0 002.413 2.403zm2.339-.074a3.307 3.307 0 01-2.339.964c-.912 0-1.74-.369-2.338-.964a3.277 3.277 0 01-.968-2.329c0-.908.37-1.732.968-2.328a3.306 3.306 0 012.338-.964c.913 0 1.741.369 2.339.964.598.596.968 1.42.968 2.328 0 .909-.37 1.734-.968 2.329z"/><path d="M151.261 99.212v-3.754h1.603c.403 0 .696.034.879.101a.86.86 0 01.438.36c.11.172.165.369.165.59 0 .283-.082.516-.248.699-.166.184-.414.299-.743.347.164.095.299.2.405.315.107.114.251.317.432.61l.46.732h-.91l-.546-.82a5.199 5.199 0 00-.403-.55.586.586 0 00-.229-.156 1.285 1.285 0 00-.385-.042h-.155v1.568h-.763zm.763-2.166h.564c.365 0 .592-.015.683-.046a.408.408 0 00.214-.159.493.493 0 00.077-.282.455.455 0 00-.102-.307.466.466 0 00-.286-.147 6.329 6.329 0 00-.556-.013h-.594v.954z"/><path fill-rule="evenodd" clip-rule="evenodd" d="M72.413 83.438c20.852.173 17.739 2.699 17.733-17.102-.003-11.105-18.287 1.837-22.763-10.631-2.827-7.875-2.174-23.337 11.57-23.356 24.312-.033 22.025 2.493 22.025-15.974 0-19.014 2.83-16.252-25.781-16.215-13.629.018-2.104 20.72-8.699 29.4-5.643-5.875-5.588-7.554-12.22-7.554v-2.85h-9.155v9.065h9.174v-2.669l.344.012 9.18 6.451c-8.018 5.08-25.333-4.12-25.433 6.995a788.11 788.11 0 00-.028 7.113h-9.607v-3.43l-9.003 5.179 9.024 5.094v-3.51h9.592c.022 14.442-.707 11.376 20.596 11.777 1.29.024 2.49.282 3.582.72l-8.948 6.284c-2.022-4.694-9.281-2.593-8.357 2.547.722 4.022 6.46 5.252 8.451.738l1.006.009c4.915-.034 6.595-3.173 10.842-7.617 6.638 6.527-1.643 19.454 6.875 19.524zm-14.424-39L49.65 57.921l2.089-9.248-5.457 1.084L54.4 37.061l-1.494 8.95 5.082-1.573z"/></g><defs><clipPath id="clip0"><path fill="#fff" d="M0 0h156v113H0z"/></clipPath></defs></svg>