<svg width="1920" height="964" fill="none" xmlns="http://www.w3.org/2000/svg"><path d="M887.5 963.5h1130V854h-2053v55.5H823l64.5 54zM108 10H-8.5v59h1958V21.5H1682L1670.5 5h-35l-5.5 7.5h-476.5L1140 25l-24.5-24-7.5 9.5H912.5L904 1l-25.5 24L866 13.5h-99l-4 2-8.5-8-6 6h-138L603 6h-34.5l-11 12.5h-37L514 25l-13.5-14.5H418l-3-3-4 2.5H155l-12-7.5L128.5 19H115l-7-9z" fill="#2E2E37" stroke="#fff" stroke-opacity=".2"/><path fill="#2E2E37" d="M0 53h1920v855H0z"/><path d="M513.5 25.5l214.5 218-214.5 227m0 0L728 750v159.5m-214.5-439H1264L1389 300h877" stroke="#fff" stroke-opacity=".1"/><circle cx="727.5" cy="243.5" r="2.5" fill="#43434B"/><circle cx="513.5" cy="470.5" r="2.5" fill="#43434B"/><circle cx="727.5" cy="750.5" r="2.5" fill="#43434B"/></svg>